<?xml version="1.0" encoding="UTF-8"?>
<svg width="420px" height="240px" viewBox="0 0 420 240" version="1.1" xmlns="http://www.w3.org/2000/svg" xmlns:xlink="http://www.w3.org/1999/xlink">
    <title>p</title>
    <defs>
        <linearGradient x1="50%" y1="0%" x2="50%" y2="49.1641171%" id="linearGradient-1">
            <stop stop-color="#DBEEFF" offset="0%"></stop>
            <stop stop-color="#FFFFFF" stop-opacity="0" offset="100%"></stop>
        </linearGradient>
        <linearGradient x1="50%" y1="0%" x2="50%" y2="49.1641171%" id="linearGradient-2">
            <stop stop-color="#DBEEFF" offset="0%"></stop>
            <stop stop-color="#FFFFFF" stop-opacity="0" offset="100%"></stop>
        </linearGradient>
        <linearGradient x1="50%" y1="0%" x2="50%" y2="49.1641171%" id="linearGradient-3">
            <stop stop-color="#DBEEFF" offset="0%"></stop>
            <stop stop-color="#FFFFFF" stop-opacity="0" offset="100%"></stop>
        </linearGradient>
        <linearGradient x1="50%" y1="0%" x2="50%" y2="49.1641171%" id="linearGradient-4">
            <stop stop-color="#DBEEFF" offset="0%"></stop>
            <stop stop-color="#FFFFFF" stop-opacity="0" offset="100%"></stop>
        </linearGradient>
        <linearGradient x1="50%" y1="100%" x2="50%" y2="3.061617e-15%" id="linearGradient-5">
            <stop stop-color="#C6E3FD" offset="0%"></stop>
            <stop stop-color="#9ECCFF" offset="100%"></stop>
        </linearGradient>
        <linearGradient x1="100%" y1="50%" x2="0%" y2="50%" id="linearGradient-6">
            <stop stop-color="#9ECCFF" offset="0%"></stop>
            <stop stop-color="#C6E3FD" offset="100%"></stop>
        </linearGradient>
        <linearGradient x1="0%" y1="0%" x2="0%" y2="100%" id="linearGradient-7">
            <stop stop-color="#A8D2FF" offset="0%"></stop>
            <stop stop-color="#60B1FF" offset="100%"></stop>
        </linearGradient>
        <linearGradient x1="34.226759%" y1="83.5329861%" x2="67.8122442%" y2="12.6649306%" id="linearGradient-8">
            <stop stop-color="#FECA2B" offset="0%"></stop>
            <stop stop-color="#FFDE5F" offset="100%"></stop>
        </linearGradient>
        <path d="M39.2666343,22.1276596 C46.4222114,23.8141748 50,26.7655764 50,30.9818643 C50,37.3062963 48.7615347,59.6526226 47.5230695,61.3391378 C46.2846042,63.025653 28.5332686,68.9284561 26.8819815,65.133797 C25.7811235,62.6040242 23.9922292,59.3715367 21.5152987,55.4363346 L20.6896552,33.9332659 C22.8913712,27.468291 25.9187308,24.2358036 29.7717339,24.2358036 C33.6247369,25.360147 36.7897037,24.6574324 39.2666343,22.1276596 Z" id="path-9"></path>
        <filter x="-66.5%" y="-37.3%" width="233.1%" height="188.1%" filterUnits="objectBoundingBox" id="filter-10">
            <feOffset dx="0" dy="3" in="SourceAlpha" result="shadowOffsetOuter1"></feOffset>
            <feGaussianBlur stdDeviation="6" in="shadowOffsetOuter1" result="shadowBlurOuter1"></feGaussianBlur>
            <feColorMatrix values="0 0 0 0 0.996078431   0 0 0 0 0.792156863   0 0 0 0 0.168627451  0 0 0 0.4 0" type="matrix" in="shadowBlurOuter1"></feColorMatrix>
        </filter>
    </defs>
    <g id="通讯录" stroke="none" stroke-width="1" fill="none" fill-rule="evenodd">
        <g id="搜索结果-无" transform="translate(-165.000000, -548.000000)">
            <g id="p" transform="translate(165.000000, 548.000000)">
                <path d="M210,180 C325.979797,180 420,206.862915 420,240 L420,240 L0,240 L0.0281340002,239.00779 C1.88260001,206.328343 95.1800005,180 210,180 Z" id="地" fill="url(#linearGradient-1)"></path>
                <g id="云" transform="translate(10.000000, 0.000000)">
                    <path d="M250,78 C261.59798,78 271,87.4020203 271,99 C271,110.59798 261.59798,120 250,120 C242.060652,120 235.150336,115.594185 231.580616,109.094118 C230.169946,109.677962 228.622581,110 227,110 C220.372583,110 215,104.627417 215,98 C215,91.372583 220.372583,86 227,86 C228.993444,86 230.873358,86.486074 232.527688,87.3461651 C236.293662,81.7110847 242.713446,78 250,78 Z" id="形状结合" fill="url(#linearGradient-2)"></path>
                    <path d="M37,36 C48.165946,36 58.1766625,40.9461252 64.9607085,48.7669345 C66.8890794,48.2662714 68.9134442,48 71,48 C84.254834,48 95,58.745166 95,72 C95,85.254834 84.254834,96 71,96 C69.4048249,96 67.8459981,95.8443743 66.3378743,95.5474776 C59.573435,104.336684 48.9480866,110 37,110 C16.5654643,110 0,93.4345357 0,73 C0,52.5654643 16.5654643,36 37,36 Z" id="形状结合" fill="url(#linearGradient-3)"></path>
                    <path d="M340,0 C373.137085,0 400,26.862915 400,60 C400,93.137085 373.137085,120 340,120 C321.127177,120 304.289527,111.286387 293.290675,97.6627849 C290.007112,98.5355073 286.5578,99 283,99 C260.90861,99 243,81.09139 243,59 C243,36.90861 260.90861,19 283,19 C287.05021,19 290.959825,19.6019646 294.644256,20.7213072 C305.643696,8.02853725 321.884266,0 340,0 Z" id="形状结合" fill="url(#linearGradient-4)"></path>
                </g>
                <g id="编组" transform="translate(115.000000, 40.000000)">
                    <g id="编组-2" transform="translate(0.000000, 64.000000)">
                        <path d="M131.207464,0 L186.687273,0 C187.791842,-2.02906125e-16 188.687273,0.8954305 188.687273,2 C188.687273,2.324574 188.608278,2.64427142 188.457109,2.93149287 L170.562372,36.9314929 C170.216528,37.5885965 169.535094,38 168.792536,38 L113.312727,38 C112.208158,38 111.312727,37.1045695 111.312727,36 C111.312727,35.675426 111.391722,35.3557286 111.542891,35.0685071 L129.437628,1.06850713 C129.783472,0.41140351 130.464906,3.24503027e-15 131.207464,0 Z" id="矩形" fill="url(#linearGradient-5)" transform="translate(150.000000, 19.000000) scale(-1, 1) translate(-150.000000, -19.000000) "></path>
                        <path d="M80,0 L170,0 L170,98 C170,102.418278 166.418278,106 162,106 L80,106 L80,106 L80,0 Z" id="矩形" fill="url(#linearGradient-6)"></path>
                        <path d="M20,0 L80,0 L80,106 L28,106 C23.581722,106 20,102.418278 20,98 L20,0 L20,0 Z" id="矩形" fill="url(#linearGradient-7)"></path>
                        <path d="M21.2074643,0 L76.6872726,0 C77.7918421,-2.02906125e-16 78.6872726,0.8954305 78.6872726,2 C78.6872726,2.324574 78.6082782,2.64427142 78.457109,2.93149287 L60.5623722,36.9314929 C60.2165282,37.5885965 59.5350943,38 58.7925357,38 L3.31272743,38 C2.20815793,38 1.31272743,37.1045695 1.31272743,36 C1.31272743,35.675426 1.3917218,35.3557286 1.54289098,35.0685071 L19.4376278,1.06850713 C19.7834718,0.41140351 20.4649057,3.24503027e-15 21.2074643,0 Z" id="矩形" fill="url(#linearGradient-5)"></path>
                        <rect id="矩形" fill="#FFFFFF" opacity="0.5" x="32" y="70" width="36" height="24" rx="2"></rect>
                        <rect id="矩形" fill="#FFFFFF" opacity="0.5" x="113" y="0" width="24" height="30" rx="2"></rect>
                    </g>
                    <g id="人" transform="translate(117.000000, 60.000000) scale(-1, 1) translate(-117.000000, -60.000000) translate(92.000000, 0.000000)">
                        <path d="M25.2249627,108.510638 C26.0744377,111.781654 26.0744377,113.689746 25.2249627,114.234915 C23.9507502,115.052669 15.4560002,119.959192 14.1817877,119.550315 C12.9075752,119.141438 15.0312627,115.870423 16.7302127,114.234915 C18.4291627,112.599407 20.9775877,110.146146 20.9775877,109.328392 C20.9775877,108.783223 22.3933794,108.510638 25.2249627,108.510638 Z" id="路径-18" fill="#313E6A"></path>
                        <path d="M10.6152979,105.957447 C11.4040961,108.976845 11.4040961,110.738161 10.6152979,111.241394 C9.43210057,111.996244 1.54411841,116.525342 0.360921086,116.147917 C-0.822276237,115.770492 1.1497193,112.751094 2.72731573,111.241394 C4.30491216,109.731695 6.67130681,107.467146 6.67130681,106.712296 C6.67130681,106.209063 7.9859705,105.957447 10.6152979,105.957447 Z" id="路径-18" fill="#313E6A"></path>
                        <path d="M5.17241379,107.234043 C4.02298851,82.2695035 4.02298851,69.3617021 5.17241379,68.5106383 C6.89655172,67.2340426 20.2586207,54.893617 25,54.893617 C32.3275862,54.893617 34.9137931,55.3191489 34.9137931,60.8510638 C34.9137931,64.5390071 28.3045977,69.5035461 15.0862069,75.7446809 C13.6494253,96.1702128 12.6436782,106.666667 12.0689655,107.234043 C11.4942529,107.801418 9.1954023,107.801418 5.17241379,107.234043 Z" id="路径-13" fill="#062EB9"></path>
                        <path d="M25.862069,4.25531915 C22.9885057,15.3191489 24.137931,20.8510638 29.3103448,20.8510638 C30.4597701,22.8368794 30.7471264,25.248227 30.1724138,28.0851064 L38.7931034,25.106383 C37.0689655,21.1347518 36.2068966,18.4397163 36.2068966,17.0212766 C36.2068966,14.893617 41.3793103,10.6382979 38.7931034,6.80851064 C37.0689655,4.25531915 32.7586207,3.40425532 25.862069,4.25531915 Z" id="路径-16" fill="#FFF0E3"></path>
                        <g id="路径-14">
                            <use fill="black" fill-opacity="1" filter="url(#filter-10)" xlink:href="#path-9"></use>
                            <use fill="url(#linearGradient-8)" fill-rule="evenodd" xlink:href="#path-9"></use>
                        </g>
                        <path d="M20.7936035,35.7446809 C20.7936035,35.7446809 20.5597198,48.5155941 20.7936035,49.2100989 C21.0274872,49.9046038 25.7870728,59.5235734 26.46039,59.5681128 C27.1337073,59.6126523 28.7513173,59.4391556 30.5816893,58.5323114 C32.4120614,57.6254673 37.9691183,54.2565233 41.4001,50.2459003 C42.5210934,48.9356116 46.348235,43.2242027 46.5517241,37.8162836 L41.4001,37.8162836 C41.4001,37.8162836 38.4750078,51.4008189 28.0058773,55.942808 C28.0058773,55.942808 25.0282385,49.5607177 24.9149028,48.1742975 C24.8015671,46.7878774 25.4300652,35.7446809 25.4300652,35.7446809 L20.7936035,35.7446809 Z" id="路径" fill="#FFD6D7"></path>
                        <path d="M18.9655172,109.787234 C17.816092,84.822695 17.816092,71.9148936 18.9655172,71.0638298 C20.6896552,69.787234 34.0517241,57.4468085 38.7931034,57.4468085 C46.1206897,57.4468085 48.7068966,57.8723404 48.7068966,63.4042553 C48.7068966,67.0921986 42.0977011,72.0567376 28.8793103,78.2978723 C27.4425287,98.7234043 26.4367816,109.219858 25.862069,109.787234 C25.2873563,110.35461 22.9885057,110.35461 18.9655172,109.787234 Z" id="路径-13" fill="#2344D2"></path>
                        <path d="M23.7068966,7.65957447 C23.0279939,5.07437932 27.5862069,0 32.7586207,0 C37.9310345,0 42.2413793,5.10638298 41.3793103,10.6382979 C40.8045977,14.3262411 38.9367816,16.5957447 35.7758621,17.4468085 C35.4885057,16.3120567 35.6321839,15.4609929 36.2068966,14.893617 C37.0689655,14.0425532 38.362069,13.6170213 38.362069,11.9148936 C38.362069,10.212766 35.7758621,10.6382979 35.7758621,11.4893617 C34.4827586,5.10638298 28.4482759,7.65957447 23.7068966,7.65957447 Z" id="路径-17" fill="#303030"></path>
                    </g>
                </g>
            </g>
        </g>
    </g>
</svg>